<svg width="145" height="54" viewBox="0 0 145 54" fill="none" xmlns="http://www.w3.org/2000/svg">
<path d="M0.0320001 53V1.16H20.064V6.344H7.264V23.624H17.184V28.744H7.264V53H0.0320001ZM25.032 53V1.16H45.128V6.536H32.264V23.688H42.696V28.808H32.264V47.816H45.256V53H25.032ZM51.0945 53V1.16H71.1905V6.536H58.3265V23.688H68.7585V28.808H58.3265V47.816H71.3185V53H51.0945ZM77.029 53L77.989 1.16H85.093L94.245 43.208L103.461 1.16H110.501L111.461 53H105.637L105.061 15.368L96.293 53H92.197L83.493 15.368L82.917 53H77.029ZM131.631 53.576C128.644 53.576 126.148 52.936 124.143 51.656C122.18 50.376 120.687 48.6053 119.663 46.344C118.639 44.0827 118.042 41.4587 117.871 38.472L124.271 36.744C124.399 38.5787 124.676 40.3493 125.103 42.056C125.572 43.7627 126.319 45.1707 127.343 46.28C128.367 47.3467 129.796 47.88 131.631 47.88C133.508 47.88 134.916 47.368 135.855 46.344C136.836 45.2773 137.327 43.7627 137.327 41.8C137.327 39.4533 136.794 37.576 135.727 36.168C134.66 34.7173 133.316 33.2667 131.695 31.816L122.991 24.136C121.284 22.6427 120.026 21.0213 119.215 19.272C118.404 17.48 117.999 15.2827 117.999 12.68C117.999 8.88266 119.087 5.93866 121.263 3.848C123.439 1.75733 126.404 0.711998 130.159 0.711998C132.207 0.711998 133.999 0.989332 135.535 1.544C137.114 2.056 138.415 2.86666 139.439 3.976C140.506 5.08533 141.338 6.49333 141.935 8.2C142.575 9.864 143.002 11.8267 143.215 14.088L137.071 15.752C136.943 14.0453 136.687 12.488 136.303 11.08C135.919 9.62933 135.236 8.47733 134.255 7.624C133.316 6.728 131.951 6.28 130.159 6.28C128.367 6.28 126.959 6.77067 125.935 7.752C124.954 8.69066 124.463 10.0987 124.463 11.976C124.463 13.5547 124.719 14.856 125.231 15.88C125.786 16.904 126.66 17.9493 127.855 19.016L136.623 26.696C138.586 28.4027 140.314 30.4507 141.807 32.84C143.3 35.1867 144.047 37.9813 144.047 41.224C144.047 43.784 143.514 46.0027 142.447 47.88C141.38 49.7147 139.908 51.1227 138.031 52.104C136.196 53.0853 134.063 53.576 131.631 53.576Z" fill="#FF0000"/>
</svg>
