<svg width="168" height="42" viewBox="0 0 168 42" fill="none" xmlns="http://www.w3.org/2000/svg">
<g clip-path="url(#clip0_406_1209)">
<path d="M49.3088 29.1457H61.2608V25.5457H53.5568V11.9857H49.3088V29.1457Z" fill="#2F234F"/>
<path d="M68.342 26.7457C66.638 26.7457 65.75 25.2577 65.75 23.0257C65.75 20.7937 66.638 19.2817 68.342 19.2817C70.046 19.2817 70.958 20.7937 70.958 23.0257C70.958 25.2577 70.046 26.7457 68.342 26.7457ZM68.366 29.5297C72.326 29.5297 74.918 26.7217 74.918 23.0257C74.918 19.3297 72.326 16.5217 68.366 16.5217C64.43 16.5217 61.79 19.3297 61.79 23.0257C61.79 26.7217 64.43 29.5297 68.366 29.5297Z" fill="#2F234F"/>
<path d="M81.7724 33.3938C83.5964 33.3938 85.2044 32.9858 86.2844 32.0258C87.2684 31.1378 87.9164 29.7938 87.9164 27.9458V16.8578H84.1724V18.1778H84.1244C83.4044 17.1458 82.3004 16.4978 80.6684 16.4978C77.6204 16.4978 75.5084 19.0418 75.5084 22.6418C75.5084 26.4098 78.0764 28.4738 80.8364 28.4738C82.3244 28.4738 83.2604 27.8738 83.9804 27.0578H84.0764V28.2818C84.0764 29.7698 83.3804 30.6338 81.7244 30.6338C80.4284 30.6338 79.7804 30.0818 79.5644 29.4338H75.7724C76.1564 32.0018 78.3884 33.3938 81.7724 33.3938ZM81.7484 25.5698C80.2844 25.5698 79.3244 24.3698 79.3244 22.5218C79.3244 20.6498 80.2844 19.4498 81.7484 19.4498C83.3804 19.4498 84.2444 20.8418 84.2444 22.4978C84.2444 24.2258 83.4524 25.5698 81.7484 25.5698Z" fill="#2F234F"/>
<path d="M95.6147 26.7457C93.9107 26.7457 93.0228 25.2577 93.0228 23.0257C93.0228 20.7937 93.9107 19.2817 95.6147 19.2817C97.3187 19.2817 98.2307 20.7937 98.2307 23.0257C98.2307 25.2577 97.3187 26.7457 95.6147 26.7457ZM95.6387 29.5297C99.5987 29.5297 102.191 26.7217 102.191 23.0257C102.191 19.3297 99.5987 16.5217 95.6387 16.5217C91.7027 16.5217 89.0627 19.3297 89.0627 23.0257C89.0627 26.7217 91.7027 29.5297 95.6387 29.5297Z" fill="#2F234F"/>
<path d="M103.333 29.1457H107.245V16.8577H103.333V29.1457ZM103.333 15.1537H107.245V11.9857H103.333V15.1537Z" fill="#2F234F"/>
<path d="M108.942 33.2018H112.854V27.8738H112.902C113.67 28.9058 114.798 29.5298 116.382 29.5298C119.598 29.5298 121.734 26.9858 121.734 23.0018C121.734 19.3058 119.742 16.4978 116.478 16.4978C114.798 16.4978 113.598 17.2418 112.758 18.3458H112.686V16.8578H108.942V33.2018ZM115.374 26.5058C113.694 26.5058 112.734 25.1378 112.734 23.1458C112.734 21.1538 113.598 19.6418 115.302 19.6418C116.982 19.6418 117.774 21.0338 117.774 23.1458C117.774 25.2338 116.862 26.5058 115.374 26.5058Z" fill="#2F234F"/>
<path d="M128.104 29.5298C131.32 29.5298 133.696 28.1378 133.696 25.4498C133.696 22.3058 131.152 21.7538 128.992 21.3938C127.432 21.1058 126.04 20.9858 126.04 20.1218C126.04 19.3538 126.784 18.9938 127.744 18.9938C128.824 18.9938 129.568 19.3298 129.712 20.4338H133.312C133.12 18.0098 131.248 16.4978 127.768 16.4978C124.864 16.4978 122.464 17.8418 122.464 20.4338C122.464 23.3138 124.744 23.8898 126.88 24.2498C128.512 24.5378 130 24.6578 130 25.7618C130 26.5538 129.256 26.9858 128.08 26.9858C126.784 26.9858 125.968 26.3858 125.824 25.1618H122.128C122.248 27.8738 124.504 29.5298 128.104 29.5298Z" fill="#2F234F"/>
<path d="M139.009 29.5058C140.713 29.5058 141.793 28.8338 142.681 27.6338H142.753V29.1458H146.497V16.8578H142.585V23.7218C142.585 25.1858 141.769 26.1938 140.425 26.1938C139.177 26.1938 138.577 25.4498 138.577 24.1058V16.8578H134.689V24.9218C134.689 27.6578 136.177 29.5058 139.009 29.5058Z" fill="#2F234F"/>
<path d="M148.199 29.1458H152.111V22.2578C152.111 20.7938 152.831 19.7618 154.055 19.7618C155.231 19.7618 155.783 20.5298 155.783 21.8498V29.1458H159.695V22.2578C159.695 20.7938 160.391 19.7618 161.639 19.7618C162.815 19.7618 163.367 20.5298 163.367 21.8498V29.1458H167.279V21.1538C167.279 18.3938 165.887 16.4978 163.103 16.4978C161.519 16.4978 160.199 17.1698 159.239 18.6578H159.191C158.567 17.3378 157.343 16.4978 155.735 16.4978C153.959 16.4978 152.783 17.3378 152.015 18.6098H151.943V16.8578H148.199V29.1458Z" fill="#2F234F"/>
<path fill-rule="evenodd" clip-rule="evenodd" d="M9.33227 4.24362C7.90161 5.24398 6.60791 6.42673 5.48486 7.75815C10.0742 7.33208 15.9047 8.0278 22.6739 11.4124C29.9025 15.0266 35.7233 15.1488 39.7743 14.3674C39.4067 13.2545 38.9439 12.1849 38.3958 11.1681C33.7585 11.6572 27.8135 11.0098 20.8851 7.54573C16.4855 5.34593 12.6073 4.43976 9.33227 4.24362ZM35.6869 7.3124C32.0248 3.22075 26.7029 0.645752 20.7795 0.645752C19.04 0.645752 17.3522 0.867859 15.7432 1.28523C17.9224 1.87984 20.2374 2.74974 22.6739 3.96802C27.7465 6.50428 32.1259 7.32091 35.6869 7.3124ZM40.6404 18.2738C35.7464 19.2402 28.9883 19.0417 20.8851 14.9901C13.3095 11.2023 7.27997 11.25 3.21344 12.1537C3.00354 12.2003 2.79858 12.2493 2.59857 12.3003C2.06616 13.4582 1.64117 14.6758 1.33624 15.9402C1.66193 15.8532 1.99847 15.7705 2.3457 15.6933C7.27911 14.597 14.2496 14.6446 22.6739 18.8568C30.2496 22.6446 36.2791 22.5969 40.3457 21.6932C40.485 21.6623 40.6223 21.6303 40.7573 21.5973C40.7721 21.282 40.7795 20.9647 40.7795 20.6457C40.7795 19.8432 40.7323 19.0517 40.6404 18.2738ZM40.1043 25.818C35.2578 26.6653 28.6965 26.3401 20.8851 22.4345C13.3095 18.6467 7.27997 18.6944 3.21344 19.5981C2.31079 19.7986 1.49878 20.0429 0.782471 20.3008C0.780518 20.4155 0.779541 20.5305 0.779541 20.6457C0.779541 31.6914 9.73383 40.6457 20.7795 40.6457C30.0366 40.6457 37.8248 34.3566 40.1043 25.818Z" fill="#7F57F1"/>
</g>
<defs>
<clipPath id="clip0_406_1209">
<rect width="167" height="41" fill="white" transform="translate(0.678101 0.352173)"/>
</clipPath>
</defs>
</svg>
